<?xml version="1.0" standalone="no"?>
<!DOCTYPE svg PUBLIC "-//W3C//DTD SVG 20010904//EN"
 "http://www.w3.org/TR/2001/REC-SVG-20010904/DTD/svg10.dtd">
<svg version="1.0" xmlns="http://www.w3.org/2000/svg"
 width="260.000000pt" height="260.000000pt" viewBox="0 0 260.000000 260.000000"
 preserveAspectRatio="xMidYMid meet">
<metadata>
Created by potrace 1.11, written by Peter Selinger 2001-2013
</metadata>
<g transform="translate(0.000000,260.000000) scale(0.100000,-0.100000)"
fill="#000000" stroke="none">
<path d="M0 1300 l0 -1300 1300 0 1300 0 0 1300 0 1300 -1300 0 -1300 0 0
-1300z m2500 0 l0 -1200 -1200 0 -1200 0 0 1200 0 1200 1200 0 1200 0 0 -1200z"/>
<path d="M250 1300 l0 -1050 1050 0 1050 0 0 1050 0 1050 -1050 0 -1050 0 0
-1050z m1500 338 c42 -13 130 -56 130 -64 0 -4 -42 -82 -55 -102 -1 -1 -31 11
-66 28 -120 57 -239 35 -239 -44 0 -47 24 -64 142 -98 126 -37 166 -57 206
-102 34 -39 49 -102 37 -158 -33 -160 -259 -214 -485 -117 -73 31 -76 38 -44
101 14 29 28 55 30 57 1 2 16 -6 33 -18 93 -66 277 -82 313 -27 15 22 8 57
-16 81 -14 14 -63 36 -127 55 -119 37 -165 58 -196 92 -29 30 -43 96 -32 150
4 24 8 46 9 50 0 4 14 23 32 43 72 82 201 111 328 73z m-839 -253 c51 -146 95
-265 98 -265 3 0 47 118 97 263 l91 262 73 3 c56 2 71 0 68 -10 -2 -7 -63
-167 -134 -355 l-129 -343 -66 0 c-54 0 -68 3 -74 18 -4 9 -55 145 -115 302
-60 157 -118 309 -129 338 l-21 52 74 0 73 0 94 -265z"/>
</g>
</svg>
